<svg width="22" height="22" viewBox="0 0 22 22" fill="none" xmlns="http://www.w3.org/2000/svg">
<path d="M11 20.625C5.6925 20.625 1.375 16.3075 1.375 11C1.375 5.6925 5.6925 1.375 11 1.375C16.3075 1.375 20.625 5.6925 20.625 11C20.625 16.3075 16.3075 20.625 11 20.625ZM11 2.75C6.44875 2.75 2.75 6.44875 2.75 11C2.75 15.5512 6.44875 19.25 11 19.25C15.5512 19.25 19.25 15.5512 19.25 11C19.25 6.44875 15.5512 2.75 11 2.75Z" fill="#8535B7"/>
<path d="M11 15.8125C10.615 15.8125 10.3125 15.51 10.3125 15.125V6.875C10.3125 6.49 10.615 6.1875 11 6.1875C11.385 6.1875 11.6875 6.49 11.6875 6.875V15.125C11.6875 15.51 11.385 15.8125 11 15.8125Z" fill="#8535B7"/>
<path d="M15.125 11.6875H6.875C6.49 11.6875 6.1875 11.385 6.1875 11C6.1875 10.615 6.49 10.3125 6.875 10.3125H15.125C15.51 10.3125 15.8125 10.615 15.8125 11C15.8125 11.385 15.51 11.6875 15.125 11.6875Z" fill="#8535B7"/>
</svg>
