<svg width="428" height="177" viewBox="0 0 428 177" fill="none" xmlns="http://www.w3.org/2000/svg">
<path opacity="0.2" d="M0 141.474C22.6024 160.706 89.403 163.679 117.777 152.196C158.047 135.896 155.821 92.8158 197.651 77.5502C274.561 49.5032 368.545 126.528 428 50V193H0V141.474Z" fill="#7A00C5"/>
<path opacity="0.2" d="M0 141.474C22.6024 160.706 89.403 163.679 117.777 152.196C158.047 135.896 155.821 92.8158 197.651 77.5502C274.561 49.5032 368.545 126.528 428 50V193H0V141.474Z" fill="#7A00C5"/>
<path opacity="0.2" d="M0 141.474C22.6024 160.706 89.403 163.679 117.777 152.196C158.047 135.896 155.821 92.8158 197.651 77.5502C274.561 49.5032 368.545 126.528 428 50V193H0V141.474Z" fill="#7A00C5"/>
<path opacity="0.2" d="M0 141.474C22.6024 160.706 89.403 163.679 117.777 152.196C158.047 135.896 155.821 92.8158 197.651 77.5502C274.561 49.5032 368.545 126.528 428 50V193H0V141.474Z" fill="#7A00C5"/>
<path opacity="0.2" d="M0 141.474C22.6024 160.706 89.403 163.679 117.777 152.196C158.047 135.896 155.821 92.8158 197.651 77.5502C274.561 49.5032 368.545 126.528 428 50V193H0V141.474Z" fill="#7A00C5"/>
<path opacity="0.2" d="M0 123.457C22.6024 149.414 89.403 153.427 117.777 137.928C158.047 115.93 155.821 57.7864 197.651 37.1832C274.561 -0.670567 368.545 103.287 428 0V193H0V123.457Z" fill="#7A00C5"/>
</svg>
