<svg width="22" height="22" viewBox="0 0 22 22" fill="none" xmlns="http://www.w3.org/2000/svg">
<path fill-rule="evenodd" clip-rule="evenodd" d="M19.6671 4.96455C19.7542 5.09674 19.793 5.25494 19.777 5.41242C19.7609 5.56991 19.6911 5.71704 19.5791 5.82897L11.1522 14.255C11.066 14.3411 10.9584 14.4028 10.8405 14.4337L7.33061 15.3504C7.21459 15.3806 7.09267 15.38 6.97695 15.3486C6.86124 15.3172 6.75575 15.2561 6.67097 15.1713C6.58618 15.0865 6.52505 14.981 6.49363 14.8653C6.46221 14.7496 6.4616 14.6277 6.49186 14.5116L7.40852 11.0026C7.43528 10.8973 7.48576 10.7995 7.55611 10.7166L16.0142 2.26405C16.1431 2.1353 16.3178 2.06299 16.5 2.06299C16.6822 2.06299 16.857 2.1353 16.9859 2.26405L19.5791 4.85638C19.612 4.88939 19.6415 4.92563 19.6671 4.96455ZM18.1207 5.34222L16.5 3.72247L8.69186 11.5306L8.11894 13.7242L10.3125 13.1513L18.1207 5.34222Z" fill="#B054BF"/>
<path d="M18.0042 15.7301C18.2548 13.5887 18.3348 11.4308 18.2435 9.27673C18.2415 9.22598 18.25 9.17536 18.2684 9.12805C18.2869 9.08073 18.3149 9.03773 18.3507 9.00173L19.2527 8.09973C19.2774 8.07494 19.3086 8.0578 19.3428 8.05036C19.377 8.04292 19.4125 8.04551 19.4453 8.0578C19.478 8.0701 19.5065 8.09158 19.5273 8.11967C19.5481 8.14776 19.5603 8.18126 19.5626 8.21614C19.7323 10.7748 19.6679 13.3436 19.3701 15.8905C19.1537 17.744 17.6651 19.1969 15.8198 19.4031C12.6164 19.7579 9.38357 19.7579 6.18014 19.4031C4.3358 19.1969 2.84622 17.744 2.62989 15.8905C2.24984 12.6413 2.24984 9.35884 2.62989 6.10964C2.84622 4.25614 4.33489 2.80323 6.18014 2.59698C8.61147 2.32737 11.0611 2.26206 13.5034 2.40173C13.5383 2.40423 13.5718 2.41671 13.5999 2.43767C13.628 2.45863 13.6495 2.4872 13.6618 2.51999C13.6742 2.55279 13.6769 2.58843 13.6696 2.62271C13.6623 2.65699 13.6453 2.68846 13.6207 2.71339L12.7105 3.62273C12.6748 3.65825 12.6323 3.68609 12.5854 3.70453C12.5386 3.72298 12.4885 3.73164 12.4382 3.72998C10.4002 3.6607 8.35993 3.73882 6.33322 3.96373C5.741 4.02927 5.18817 4.29256 4.76403 4.71104C4.33989 5.12952 4.06921 5.67877 3.99572 6.27006C3.62818 9.41268 3.62818 12.5874 3.99572 15.7301C4.06921 16.3213 4.33989 16.8706 4.76403 17.2891C5.18817 17.7076 5.741 17.9708 6.33322 18.0364C9.40864 18.3801 12.5913 18.3801 15.6676 18.0364C16.2599 17.9708 16.8127 17.7076 17.2368 17.2891C17.661 16.8706 17.9307 16.3213 18.0042 15.7301Z" fill="#B054BF"/>
</svg>
