<svg width="17" height="14" viewBox="0 0 17 14" fill="none" xmlns="http://www.w3.org/2000/svg">
<path d="M3.27338 2.63375C3.40229 2.20908 3.46675 1.99733 3.65871 1.87367C3.85138 1.75 4.117 1.75 4.64825 1.75H12.3521C12.8833 1.75 13.149 1.75 13.3416 1.87367C13.5329 1.99733 13.598 2.20908 13.727 2.63375L14.5791 5.44192C14.6478 5.66825 14.6825 5.78083 14.6747 5.873C14.665 5.98923 14.6133 6.10042 14.5262 6.19222C14.4391 6.28402 14.3206 6.35224 14.186 6.38808C14.0797 6.41667 13.9352 6.41667 13.6455 6.41667C13.268 6.41667 13.0788 6.41667 12.9209 6.38633C12.7019 6.34432 12.4982 6.25998 12.3266 6.14029C12.155 6.0206 12.0205 5.86899 11.9342 5.698C11.8711 5.57433 11.8407 5.42383 11.7805 5.12458C11.7635 5.04058 11.755 4.99858 11.745 4.9875C11.7385 4.98003 11.7299 4.97395 11.7199 4.96976C11.7099 4.96556 11.6989 4.96338 11.6877 4.96338C11.6765 4.96338 11.6654 4.96556 11.6555 4.96976C11.6455 4.97395 11.6369 4.98003 11.6303 4.9875C11.6204 4.99858 11.6119 5.04 11.5949 5.12458L11.5375 5.40983C11.4915 5.68447 11.3282 5.93664 11.0769 6.12113C10.8256 6.30563 10.5027 6.4104 10.1662 6.41667H10.0217C9.6851 6.4104 9.36224 6.30563 9.11095 6.12113C8.85966 5.93664 8.69637 5.68447 8.65034 5.40983L8.59296 5.124C8.57596 5.04058 8.56746 4.99858 8.55754 4.9875C8.55098 4.98003 8.54235 4.97395 8.53238 4.96976C8.52241 4.96556 8.51137 4.96338 8.50017 4.96338C8.48897 4.96338 8.47793 4.96556 8.46796 4.96976C8.45798 4.97395 8.44936 4.98003 8.44279 4.9875C8.43288 4.99858 8.42438 5.04 8.40738 5.12458L8.35 5.40983C8.30397 5.68447 8.14067 5.93664 7.88938 6.12113C7.63809 6.30563 7.31524 6.4104 6.97867 6.41667H6.83417C6.51013 6.41042 6.19848 6.31285 5.95124 6.14023C5.704 5.96762 5.53611 5.7304 5.47559 5.46817C5.47047 5.44886 5.46622 5.4294 5.46284 5.40983L5.40546 5.124C5.38846 5.04058 5.37996 4.99858 5.37004 4.9875C5.36348 4.98003 5.35485 4.97395 5.34488 4.96976C5.33491 4.96556 5.32387 4.96338 5.31267 4.96338C5.30147 4.96338 5.29043 4.96556 5.28046 4.96976C5.27048 4.97395 5.26186 4.98003 5.25529 4.9875C5.24538 4.99858 5.23688 5.04 5.21988 5.12458C5.15967 5.42442 5.12921 5.57375 5.06617 5.698C4.97991 5.86892 4.8455 6.02049 4.67405 6.14017C4.50261 6.25986 4.29904 6.34424 4.08017 6.38633C3.9215 6.41667 3.73309 6.41667 3.35484 6.41667C3.06513 6.41667 2.92063 6.41667 2.81438 6.38808C2.67977 6.35224 2.56127 6.28402 2.47416 6.19222C2.38705 6.10042 2.33532 5.98923 2.32563 5.873C2.31854 5.78083 2.35254 5.66825 2.42125 5.44192L3.27338 2.63375Z" fill="#8535B7"/>
<path fill-rule="evenodd" clip-rule="evenodd" d="M3.55355 7.29134C3.5415 7.53693 3.5415 7.82509 3.5415 8.16634V11.6663C3.5415 12.2164 3.5415 12.4912 3.74905 12.6621C3.95659 12.833 4.29021 12.833 4.95817 12.833H7.08317V10.4997C7.08317 10.345 7.1578 10.1966 7.29064 10.0872C7.42348 9.9778 7.60364 9.91634 7.7915 9.91634H9.20817C9.39603 9.91634 9.5762 9.9778 9.70904 10.0872C9.84188 10.1966 9.9165 10.345 9.9165 10.4997V12.833H12.0415C12.7095 12.833 13.0431 12.833 13.2506 12.6621C13.4582 12.4912 13.4582 12.2164 13.4582 11.6663V8.16634C13.4582 7.82509 13.4582 7.53693 13.4461 7.29134C13.1876 7.29134 12.9234 7.28493 12.679 7.23826C12.3164 7.16868 11.9774 7.0327 11.6873 6.84043C11.2737 7.11459 10.7523 7.28026 10.1906 7.29076L10.1014 7.29134H9.99655C9.45082 7.28093 8.9246 7.12219 8.49984 6.83984C8.08617 7.11401 7.56484 7.27968 7.00313 7.29018L6.91388 7.29076H6.80905C6.26341 7.28052 5.73719 7.12198 5.31234 6.83984C5.02617 7.02943 4.689 7.16651 4.32067 7.23768C4.0763 7.28434 3.81209 7.29018 3.55355 7.29076" fill="#8535B7"/>
</svg>
