<svg width="168" height="41" viewBox="0 0 168 41" fill="none" xmlns="http://www.w3.org/2000/svg">
<path d="M68.9062 33V24.0469H54.1562V33H48.3594V11.5312H54.1562V19.3438H68.9062V11.5312H74.7031V33H68.9062ZM103.566 25.7656C103.566 26.8385 103.3 27.849 102.769 28.7969C102.237 29.7448 101.441 30.5729 100.378 31.2812C99.3156 31.9896 97.9875 32.5521 96.3937 32.9688C94.8104 33.375 92.9562 33.5781 90.8312 33.5781C88.7062 33.5781 86.8417 33.375 85.2375 32.9688C83.6437 32.5521 82.3156 31.9896 81.2531 31.2812C80.1906 30.5729 79.3937 29.7448 78.8625 28.7969C78.3312 27.849 78.0656 26.8385 78.0656 25.7656V11.5312H83.8469V23.6875C83.8469 24.4062 83.9354 25.0885 84.1125 25.7344C84.3 26.3698 84.6437 26.9271 85.1437 27.4062C85.6542 27.8854 86.3625 28.2656 87.2687 28.5469C88.1854 28.8281 89.3729 28.9688 90.8312 28.9688C92.2792 28.9688 93.4562 28.8281 94.3625 28.5469C95.2687 28.2656 95.9719 27.8854 96.4719 27.4062C96.9823 26.9271 97.326 26.3698 97.5031 25.7344C97.6802 25.0885 97.7687 24.4062 97.7687 23.6875V11.5312H103.566V25.7656ZM134.225 33V17.9219L126.256 33H120.694L112.725 17.9219V33H106.928V11.5312H114.803L123.475 27.7812L132.147 11.5312H139.991V33H134.225ZM143.509 33V11.5312H165.244V16.1094H149.463V19.6562H164.431V24.2344H149.463V28.4219H165.463V33H143.509Z" fill="#451E5D"/>
<path d="M39.913 12.1665L35.2609 27.185C34.913 28.2545 34 28.9676 32.913 28.9676H14.9565C13.913 28.9676 12.913 28.2991 12.5652 27.3186L5.69565 8.46756H1.73913C0.782609 8.46756 0 7.66539 0 6.68495C0 5.70452 0.782609 4.90234 1.73913 4.90234H6.91304C7.65217 4.90234 8.30435 5.39256 8.56522 6.1056L15.6522 25.4023H32.1739L35.8696 13.3697H15.3913C14.4348 13.3697 13.6522 12.5676 13.6522 11.5871C13.6522 10.6067 14.4348 9.80452 15.3913 9.80452H38.2609C38.8261 9.80452 39.3478 10.1165 39.6522 10.5621C40 11.0078 40.087 11.6317 39.913 12.1665ZM15.8261 31.3295C15.087 31.3295 14.3478 31.6415 13.8261 32.1763C13.3043 32.711 13 33.4687 13 34.2263C13 34.9839 13.3043 35.7415 13.8261 36.2763C14.3478 36.811 15.087 37.123 15.8261 37.123C16.5652 37.123 17.3043 36.811 17.8261 36.2763C18.3478 35.7415 18.6522 34.9839 18.6522 34.2263C18.6522 33.4687 18.3478 32.711 17.8261 32.1763C17.3043 31.6415 16.5652 31.3295 15.8261 31.3295ZM31.4348 31.3295C30.6957 31.3295 29.9565 31.6415 29.4348 32.1763C28.913 32.711 28.6087 33.4687 28.6087 34.2263C28.6087 34.9839 28.913 35.7415 29.4348 36.2763C29.9565 36.811 30.6957 37.123 31.4348 37.123C32.1739 37.123 32.913 36.811 33.4348 36.2763C33.9565 35.7415 34.2609 34.9839 34.2609 34.2263C34.2609 33.4687 33.9565 32.711 33.4348 32.1763C32.913 31.6415 32.1739 31.3295 31.4348 31.3295Z" fill="#451E5D"/>
</svg>
