<svg width="19" height="18" viewBox="0 0 19 18" fill="none" xmlns="http://www.w3.org/2000/svg">
<path d="M3.67662 3.59961H16.2641C17.4516 3.59961 18.0501 4.13061 18.0501 5.21061V12.7886C18.0501 13.8596 17.4516 14.3996 16.2641 14.3996H3.67662C2.48912 14.3996 1.89062 13.8596 1.89062 12.7886V5.21061C1.89062 4.13061 2.48912 3.59961 3.67662 3.59961ZM9.96562 11.3396L16.3686 6.36261C16.5966 6.18261 16.7771 5.76861 16.4921 5.39961C16.2166 5.03061 15.7131 5.02161 15.3806 5.24661L9.96562 8.72061L4.56013 5.24661C4.22763 5.02161 3.72413 5.03061 3.44863 5.39961C3.16363 5.76861 3.34412 6.18261 3.57212 6.36261L9.96562 11.3396Z" fill="black" fill-opacity="0.27"/>
</svg>
