<svg width="39" height="36" viewBox="0 0 39 36" fill="none" xmlns="http://www.w3.org/2000/svg">
<g clip-path="url(#clip0_3_407)">
<path d="M38.3141 35.994H19.5755C19.5029 35.994 19.4311 35.9813 19.3642 35.9567C19.2972 35.9322 19.2364 35.8961 19.1852 35.8507C19.134 35.8053 19.0934 35.7513 19.0658 35.692C19.0382 35.6327 19.0241 35.5691 19.0244 35.505V35.481L20.1265 16.062C20.1348 15.938 20.1962 15.8214 20.2983 15.7361C20.4004 15.6508 20.5355 15.6032 20.6759 15.603H37.2119C37.5053 15.603 37.7444 15.8055 37.7613 16.0605L38.8584 35.385C38.8686 35.421 38.8754 35.463 38.8754 35.5065C38.8754 35.6354 38.8175 35.7605 38.7145 35.8517C38.6114 35.9428 38.4717 35.994 38.326 35.994H38.3243H38.3141ZM22.8871 19.677C22.8905 20.379 23.411 20.9715 24.1283 21.174L24.1402 21.177C24.7184 23.6535 26.7074 25.4865 29.0711 25.4865C31.4348 25.4865 33.4205 23.652 33.9953 21.1845C34.3799 21.084 34.7152 20.8721 34.9475 20.5829C35.1798 20.2937 35.2957 19.9438 35.2764 19.5895C35.2572 19.2351 35.104 18.8967 34.8415 18.6285C34.5789 18.3603 34.2222 18.1778 33.8284 18.1103C33.4347 18.0429 33.0267 18.0943 32.6699 18.2563C32.3132 18.4184 32.0282 18.6817 31.8608 19.0041C31.6933 19.3265 31.6531 19.6893 31.7465 20.0343C31.8399 20.3794 32.0616 20.6867 32.3759 20.907L32.3793 20.91C31.9588 22.707 30.6345 24.0255 29.0643 24.0255C27.4942 24.0255 26.1766 22.7145 25.7527 20.925C25.9921 20.761 26.1804 20.5459 26.2998 20.2998C26.4193 20.0537 26.466 19.7848 26.4355 19.5183C26.405 19.2518 26.2983 18.9966 26.1255 18.7767C25.9528 18.5568 25.7196 18.3794 25.4479 18.2612C25.1762 18.143 24.875 18.0879 24.5726 18.1012C24.2702 18.1144 23.9766 18.1955 23.7194 18.3368C23.4623 18.4781 23.25 18.675 23.1026 18.909C22.9552 19.1429 22.8775 19.4062 22.8769 19.674V19.6785L22.8871 19.677ZM0.550237 34.0785C0.475369 34.0784 0.401309 34.0648 0.332577 34.0385C0.263845 34.0123 0.201883 33.9739 0.150472 33.9258C0.0990607 33.8776 0.0592786 33.8207 0.0335534 33.7585C0.00782814 33.6963 -0.00330072 33.6301 0.000845938 33.564L1.53372 6.573C1.54193 6.44897 1.60336 6.33239 1.70547 6.24708C1.80758 6.16177 1.94266 6.11417 2.08311 6.114H5.82032C6.99202 2.514 10.1188 0 13.7543 0C17.3898 0 20.5131 2.5155 21.6848 6.111H25.0677C25.3593 6.111 25.6001 6.3135 25.6154 6.5685L26.0579 14.3835H20.6759C19.645 14.3835 18.8039 15.099 18.7514 15.999V16.0035L17.7255 34.08L0.550237 34.0785ZM18.5632 8.5155C18.1221 8.76981 17.7857 9.14324 17.6038 9.58027C17.4219 10.0173 17.4044 10.4946 17.5537 10.9411C17.7031 11.3877 18.0114 11.7797 18.4327 12.0588C18.8541 12.338 19.3661 12.4894 19.8925 12.4905C20.4645 12.4927 21.0192 12.3172 21.4599 11.9946C21.9006 11.672 22.1992 11.2228 22.3038 10.7254C22.4084 10.2279 22.3122 9.71375 22.032 9.2726C21.7519 8.83145 21.3055 8.49131 20.7709 8.3115L20.7539 8.307C20.3538 4.32 17.3677 1.2135 13.756 1.2135C10.1442 1.2135 7.14632 4.326 6.75124 8.3205C6.24029 8.49731 5.81155 8.8212 5.53414 9.23993C5.25674 9.65866 5.14683 10.1478 5.22215 10.6286C5.29747 11.1093 5.55362 11.5536 5.9493 11.8898C6.34498 12.2261 6.85714 12.4346 7.40318 12.4818C7.94923 12.529 8.49734 12.4122 8.95914 12.1502C9.42094 11.8881 9.76952 11.4961 9.94867 11.0374C10.1278 10.5786 10.1271 10.0799 9.94663 9.62155C9.76616 9.16322 9.41645 8.77201 8.95389 8.511L8.94372 8.5065C9.22859 5.5035 11.2769 3.1665 13.756 3.1665C16.235 3.1665 18.2885 5.511 18.5682 8.52L18.5632 8.5155ZM11.1209 6.108H16.3775C16.154 5.64131 15.7942 5.2356 15.335 4.93247C14.8759 4.62934 14.3338 4.4397 13.7645 4.383L13.7492 4.3815C12.5622 4.497 11.5788 5.169 11.1294 6.0915L11.1209 6.108ZM32.8236 19.635C32.8171 19.5565 32.8291 19.4776 32.8586 19.4033C32.8882 19.3291 32.9347 19.261 32.9953 19.2033C33.056 19.1457 33.1294 19.0997 33.211 19.0682C33.2926 19.0368 33.3806 19.0206 33.4696 19.0206C33.5586 19.0206 33.6467 19.0368 33.7283 19.0682C33.8099 19.0997 33.8833 19.1457 33.9439 19.2033C34.0045 19.261 34.0511 19.3291 34.0806 19.4033C34.1102 19.4776 34.1221 19.5565 34.1157 19.635C34.1013 19.7776 34.0272 19.9103 33.9078 20.007C33.7883 20.1037 33.6323 20.1573 33.4705 20.1573C33.3086 20.1573 33.1526 20.1037 33.0332 20.007C32.9138 19.9103 32.8379 19.7776 32.8236 19.635ZM23.9655 19.635C23.9655 19.5217 24.0035 19.4109 24.0747 19.3167C24.1458 19.2224 24.247 19.149 24.3654 19.1056C24.4837 19.0622 24.614 19.0509 24.7396 19.073C24.8653 19.0951 24.9807 19.1497 25.0713 19.2298C25.1618 19.31 25.2235 19.4121 25.2485 19.5232C25.2735 19.6344 25.2607 19.7496 25.2117 19.8543C25.1626 19.959 25.0796 20.0485 24.9731 20.1114C24.8666 20.1744 24.7413 20.208 24.6132 20.208C24.4426 20.2064 24.2796 20.1454 24.1596 20.0381C24.0396 19.9308 23.9723 19.7859 23.9723 19.635H23.9655ZM18.9192 10.416C18.9192 10.1902 19.0206 9.97372 19.2011 9.81408C19.3815 9.65444 19.6263 9.56475 19.8815 9.56475C20.1367 9.56475 20.3815 9.65444 20.562 9.81408C20.7424 9.97372 20.8438 10.1902 20.8438 10.416C20.8438 10.6418 20.7424 10.8583 20.562 11.0179C20.3815 11.1776 20.1367 11.2673 19.8815 11.2673C19.6263 11.2673 19.3815 11.1776 19.2011 11.0179C19.0206 10.8583 18.9192 10.6418 18.9192 10.416ZM6.66306 10.416C6.65343 10.2988 6.67121 10.1811 6.71529 10.0703C6.75938 9.95943 6.82881 9.85781 6.91927 9.77176C7.00972 9.68572 7.11926 9.61709 7.24103 9.57016C7.36281 9.52323 7.49421 9.49901 7.62704 9.49901C7.75987 9.49901 7.89127 9.52323 8.01305 9.57016C8.13483 9.61709 8.24436 9.68572 8.33482 9.77176C8.42527 9.85781 8.49471 9.95943 8.53879 10.0703C8.58287 10.1811 8.60065 10.2988 8.59102 10.416C8.57074 10.6296 8.46048 10.8287 8.2821 10.9738C8.10371 11.1189 7.87022 11.1994 7.62789 11.1994C7.38556 11.1994 7.15206 11.1189 6.97368 10.9738C6.7953 10.8287 6.68335 10.6296 6.66306 10.416Z" fill="#8535B7"/>
</g>
<defs>
<clipPath id="clip0_3_407">
<rect width="39" height="36" fill="white"/>
</clipPath>
</defs>
</svg>
