<svg width="21" height="19" viewBox="0 0 21 19" fill="none" xmlns="http://www.w3.org/2000/svg">
<path d="M14.4863 10.2169L14.0881 10.5755C14.0881 10.5755 13.1405 11.4274 10.5549 9.10145C7.96927 6.77553 8.9169 5.9237 8.9169 5.9237L9.16715 5.69728C9.78577 5.14153 9.8444 4.24853 9.30452 3.5962L8.20202 2.26382C7.53352 1.45632 6.2429 1.34945 5.47727 2.0382L4.10352 3.2732C3.72465 3.6152 3.4709 4.05695 3.50152 4.54778C3.58027 5.80416 4.20852 8.50612 7.71202 11.6585C11.4281 15.0009 14.915 15.1339 16.3404 15.0136C16.7919 14.9756 17.1839 14.7682 17.4998 14.4832L18.7423 13.3654C19.5823 12.6109 19.346 11.3165 18.2715 10.7885L16.6003 9.96595C15.895 9.61999 15.0375 9.72132 14.4863 10.2169Z" fill="black" fill-opacity="0.27"/>
</svg>
