<svg width="42" height="42" viewBox="0 0 42 42" fill="none" xmlns="http://www.w3.org/2000/svg">
<path d="M34.0951 4.2H2.00559V0H34.0951V4.2ZM32.0895 16.8C28.2588 16.8 24.8092 18.396 22.2822 21H22.0615V21.231C19.5746 23.877 18.0504 27.489 18.0504 31.5C18.0504 32.214 18.1105 32.907 18.2108 33.6H2.00559V21H0V16.8L2.00559 6.3H34.0951L36.1007 16.8V17.43C34.8372 17.031 33.4934 16.8 32.0895 16.8ZM18.0504 21H6.01678V29.4H18.0504V21ZM41.7164 34.44C41.9169 34.44 41.9169 34.65 41.7164 34.86L39.7108 38.43C39.5102 38.64 39.3097 38.64 39.1091 38.64L36.7024 37.8C36.1007 38.22 35.6996 38.43 35.0979 38.85L34.6968 41.58C34.6968 41.79 34.4962 42 34.2957 42H30.2845C30.0839 42 29.8834 41.79 29.6828 41.58L29.2817 38.85C28.68 38.64 28.0783 38.22 27.6772 37.8L25.2705 38.85C25.0699 38.85 24.8694 38.85 24.6688 38.64L22.6632 35.07C22.4627 34.86 22.6632 34.65 22.8638 34.44L25.0699 32.76V30.66L22.8638 28.98C22.6632 28.77 22.6632 28.56 22.6632 28.35L24.6688 24.78C24.8694 24.57 25.0699 24.57 25.2705 24.57L27.6772 25.62C28.2789 25.2 28.68 24.99 29.2817 24.57L29.6828 21.84C29.6828 21.63 29.8834 21.42 30.2845 21.42H34.2957C34.4962 21.42 34.6968 21.63 34.6968 21.84L35.0979 24.57C35.6996 24.78 36.3013 25.2 36.9029 25.62L39.3097 24.57C39.5102 24.57 39.9113 24.57 39.9113 24.78L41.9169 28.35C42.1175 28.56 41.9169 28.77 41.7164 28.98L39.5102 30.66V32.76L41.7164 34.44ZM35.0979 31.5C35.0979 29.82 33.694 28.35 32.0895 28.35C30.485 28.35 29.0811 29.82 29.0811 31.5C29.0811 33.18 30.485 34.65 32.0895 34.65C33.694 34.65 35.0979 33.18 35.0979 31.5Z" fill="#8535B7"/>
</svg>
