<svg width="16" height="17" viewBox="0 0 16 17" fill="none" xmlns="http://www.w3.org/2000/svg">
<path d="M6.55742 1.44087C6.63208 1.46779 6.70541 1.50037 6.77675 1.53721L7.63208 1.98487C7.74657 2.04475 7.87247 2.07588 8.00008 2.07588C8.12769 2.07588 8.25359 2.04475 8.36808 1.98487L9.22341 1.53721C9.43944 1.42421 9.67429 1.35754 9.91456 1.341C10.1548 1.32445 10.3958 1.35835 10.6238 1.44077C10.8517 1.52319 11.0621 1.65251 11.243 1.82134C11.4239 1.99017 11.5718 2.19521 11.6781 2.42475L11.7267 2.5395L11.7687 2.65779L12.0754 3.61616C12.1587 3.87683 12.3514 4.08083 12.5961 4.16937L13.4987 4.49521C13.7457 4.58446 13.9718 4.72867 14.1621 4.91819C14.3524 5.10771 14.5024 5.33819 14.6022 5.59423C14.7019 5.85027 14.7491 6.12598 14.7406 6.40295C14.7321 6.67991 14.668 6.95176 14.5527 7.20033L14.1321 8.10912C14.0757 8.23077 14.0464 8.36454 14.0464 8.50012C14.0464 8.6357 14.0757 8.76948 14.1321 8.89112L14.5527 9.79991C14.6679 10.0485 14.7319 10.3202 14.7403 10.5971C14.7488 10.874 14.7016 11.1496 14.6018 11.4056C14.5021 11.6615 14.3521 11.8919 14.1619 12.0814C13.9716 12.2709 13.7456 12.4151 13.4987 12.5043L12.5961 12.8302C12.4753 12.8739 12.3657 12.9466 12.2755 13.0425C12.1853 13.1384 12.1171 13.255 12.0761 13.3834L11.7687 14.3425C11.6847 14.6047 11.549 14.8449 11.3707 15.047C11.1924 15.2491 10.9755 15.4085 10.7346 15.5145C10.4937 15.6204 10.2343 15.6706 9.97373 15.6616C9.71313 15.6526 9.45733 15.5847 9.22341 15.4623L8.36808 15.0154C8.25359 14.9555 8.12769 14.9244 8.00008 14.9244C7.87247 14.9244 7.74657 14.9555 7.63208 15.0154L6.77675 15.4623C6.54283 15.5847 6.28703 15.6526 6.02644 15.6616C5.76584 15.6706 5.50644 15.6204 5.26554 15.5145C5.02464 15.4085 4.80779 15.2491 4.62947 15.047C4.45114 14.8449 4.31544 14.6047 4.23141 14.3425L3.92475 13.3834C3.88349 13.255 3.81502 13.1384 3.72463 13.0426C3.63424 12.9468 3.52434 12.8744 3.40341 12.8309L2.50141 12.5043C2.25453 12.4151 2.0284 12.271 1.83811 12.0816C1.64782 11.8921 1.49776 11.6617 1.39794 11.4058C1.29812 11.1498 1.25084 10.8742 1.25926 10.5972C1.26767 10.3203 1.33159 10.0485 1.44675 9.79991L1.86808 8.89112C1.92443 8.76948 1.95374 8.6357 1.95374 8.50012C1.95374 8.36454 1.92443 8.23077 1.86808 8.10912L1.44675 7.20033C1.33159 6.95175 1.26767 6.67992 1.25926 6.403C1.25084 6.12608 1.29812 5.85044 1.39794 5.59448C1.49776 5.33851 1.64782 5.10812 1.83811 4.91868C2.0284 4.72924 2.25453 4.58511 2.50141 4.49591L3.40341 4.17008C3.52436 4.12634 3.63421 4.05363 3.7245 3.95758C3.81478 3.86154 3.88306 3.74472 3.92408 3.61616L4.23075 2.65779C4.30827 2.41553 4.42996 2.19188 4.58885 1.9996C4.74775 1.80733 4.94074 1.65019 5.1568 1.53719C5.37287 1.42418 5.60777 1.35751 5.84809 1.34098C6.08841 1.32446 6.32944 1.3584 6.55742 1.44087ZM10.3134 6.35316L6.70008 10.1923L5.38408 8.51358C5.34264 8.45809 5.29117 8.41196 5.23271 8.37792C5.17424 8.34387 5.10996 8.32259 5.04364 8.31533C4.97732 8.30807 4.9103 8.31498 4.84653 8.33565C4.78276 8.35631 4.72353 8.39032 4.67231 8.43567C4.62109 8.48102 4.57892 8.53679 4.54829 8.59971C4.51766 8.66263 4.49918 8.73142 4.49395 8.80204C4.48871 8.87266 4.49681 8.94368 4.51779 9.01092C4.53876 9.07816 4.57218 9.14027 4.61608 9.19358L6.28275 11.3186C6.32719 11.3753 6.38225 11.4215 6.44443 11.4543C6.50662 11.4872 6.57456 11.5059 6.64392 11.5093C6.71329 11.5127 6.78256 11.5007 6.84732 11.4741C6.91209 11.4475 6.97092 11.4068 7.02008 11.3547L11.0201 7.10471C11.0692 7.05607 11.1086 6.99742 11.1359 6.93225C11.1633 6.86709 11.178 6.79674 11.1791 6.72541C11.1803 6.65408 11.168 6.58322 11.1428 6.51707C11.1177 6.45092 11.0803 6.39083 11.0328 6.34039C10.9853 6.28994 10.9287 6.25017 10.8665 6.22345C10.8042 6.19673 10.7375 6.18361 10.6704 6.18487C10.6033 6.18613 10.5371 6.20174 10.4757 6.23078C10.4144 6.25981 10.3592 6.30168 10.3134 6.35387" fill="#8535B7"/>
</svg>
