<svg width="16" height="16" viewBox="0 0 16 16" fill="none" xmlns="http://www.w3.org/2000/svg">
<path d="M8.00006 13.4396C4.99206 13.4396 2.56006 11.0076 2.56006 7.99957C2.56006 4.99157 4.99206 2.55957 8.00006 2.55957C11.0081 2.55957 13.4401 4.99157 13.4401 7.99957C13.4401 11.0076 11.0081 13.4396 8.00006 13.4396ZM8.00006 3.19957C5.34406 3.19957 3.20006 5.34357 3.20006 7.99957C3.20006 10.6556 5.34406 12.7996 8.00006 12.7996C10.6561 12.7996 12.8001 10.6556 12.8001 7.99957C12.8001 5.34357 10.6561 3.19957 8.00006 3.19957Z" fill="#00FF1A"/>
<path d="M7.36017 10.3684L4.57617 7.58445L5.02417 7.13645L7.36017 9.47245L10.9762 5.85645L11.4242 6.30445L7.36017 10.3684Z" fill="#00FF1A"/>
</svg>
