<svg width="26" height="24" viewBox="0 0 26 24" fill="none" xmlns="http://www.w3.org/2000/svg">
<path d="M2.1665 14.5003C2.1665 15.0913 2.2926 15.6764 2.53759 16.2224C2.78258 16.7684 3.14167 17.2644 3.59436 17.6823C4.5086 18.5262 5.74857 19.0003 7.0415 19.0003H20.0415C21.0013 19.0019 21.926 18.6675 22.6292 18.0644C23.3323 17.4614 23.7615 16.6346 23.8303 15.7509C23.899 14.8672 23.6021 13.9924 22.9995 13.3028C22.3969 12.6132 21.5334 12.1603 20.5832 12.0353C20.5937 10.3341 19.9328 8.68751 18.7238 7.40341C17.5149 6.1193 15.8407 5.28556 14.0142 5.05802C12.1877 4.83049 10.334 5.22474 8.7995 6.16708C7.26503 7.10942 6.15486 8.53535 5.6765 10.1783C4.66372 10.4513 3.77415 11.0201 3.14129 11.7994C2.50842 12.5787 2.16639 13.5264 2.1665 14.5003Z" stroke="white" stroke-width="1.5" stroke-linejoin="round"/>
<path d="M15.1663 11L12.9997 9M12.9997 9L10.833 11M12.9997 9V15" stroke="white" stroke-width="1.5" stroke-linecap="round" stroke-linejoin="round"/>
</svg>
